# xmcd CD database file
#
# Track frame offsets:
#	150
#	12592
#	33762
#	53310
#	66907
#	77815
#	89812
#	105995
#	122355
#	137280
#	152662
#	166045
#
# Disc length: 2485 seconds
#
# Revision: 3
# Processed by: cddbd v1.5.1PL0 Copyright (c) Steve Scherf et al.
# Submitted via: CDex 1.51
#
DISCID=8309b30c
DTITLE=Kris Kristofferson - Me and Bobby McGee
DYEAR=1974
DGENRE=Country
TTITLE0=Blame It On The Stones
TTITLE1=To Beat The Devil
TTITLE2=Me And Bobby McGee
TTITLE3=The Best Of All Possible  Worlds
TTITLE4=Help Me Make It Through The Night
TTITLE5=The Law Is For Protection Of The People
TTITLE6=Casey's Last Ride
TTITLE7=Just The Other Side Of Nowhere
TTITLE8=Darby's Castle
TTITLE9=For The Good Times
TTITLE10=Duvaliers Dream
TTITLE11=Sunday Mornin' Comin' Down
EXTD=YEAR: 1974
EXTT0=
EXTT1=
EXTT2=
EXTT3=
EXTT4=
EXTT5=
EXTT6=
EXTT7=
EXTT8=
EXTT9=
EXTT10=
EXTT11=
PLAYORDER=
